<svg xmlns="http://www.w3.org/2000/svg" width="18.122" height="16.102" viewBox="0 0 18.122 16.102"><defs><style>.a{fill:#fdd835;}</style></defs><g transform="translate(0 0)"><g transform="translate(0 0)"><path class="a" d="M5.266,117.3a11.289,11.289,0,0,0,1.467-.094V112.1a11.3,11.3,0,0,0-1.467-.094C2.358,112.009,0,113.078,0,114.4v.518C0,116.234,2.358,117.3,5.266,117.3Z" transform="translate(-0.001 -107.965)"/><path class="a" d="M5.266,216.569a11.3,11.3,0,0,0,1.467-.094v-1.5a11.3,11.3,0,0,1-1.467.095c-2.538,0-4.657-.815-5.154-1.9a1.165,1.165,0,0,0-.111.489v.518C0,215.5,2.358,216.569,5.266,216.569Z" transform="translate(-0.001 -204.565)"/><path class="a" d="M6.732,274.179v-.116a11.3,11.3,0,0,1-1.467.094c-2.538,0-4.657-.815-5.154-1.9a1.165,1.165,0,0,0-.111.489v.518c0,1.319,2.357,2.388,5.265,2.388a11.185,11.185,0,0,0,1.664-.122,1.883,1.883,0,0,1-.2-.835Z" transform="translate(0 -260.983)"/><path class="a" d="M173.5,22.379c-2.908,0-5.265,1.069-5.265,2.388v.518c0,1.319,2.357,2.388,5.265,2.388s5.265-1.069,5.265-2.388v-.518C178.769,23.448,176.412,22.379,173.5,22.379Z" transform="translate(-160.648 -22.379)"/><path class="a" d="M173.5,125.443c-2.538,0-4.657-.815-5.154-1.9a1.165,1.165,0,0,0-.111.489v.518c0,1.319,2.357,2.388,5.265,2.388s5.265-1.069,5.265-2.388v-.518a1.164,1.164,0,0,0-.111-.489C178.161,124.628,176.042,125.443,173.5,125.443Z" transform="translate(-160.648 -118.979)"/><path class="a" d="M173.5,184.527c-2.538,0-4.657-.815-5.154-1.9a1.165,1.165,0,0,0-.111.489v.518c0,1.319,2.357,2.388,5.265,2.388s5.265-1.069,5.265-2.388v-.518a1.164,1.164,0,0,0-.111-.489C178.161,183.712,176.042,184.527,173.5,184.527Z" transform="translate(-160.648 -175.397)"/><path class="a" d="M173.5,246.8c-2.538,0-4.657-.815-5.154-1.9a1.165,1.165,0,0,0-.111.489v.518c0,1.319,2.357,2.388,5.265,2.388s5.265-1.069,5.265-2.388v-.518a1.164,1.164,0,0,0-.111-.489C178.161,245.985,176.042,246.8,173.5,246.8Z" transform="translate(-160.648 -234.86)"/><path class="a" d="M173.5,305.883c-2.538,0-4.657-.815-5.154-1.9a1.165,1.165,0,0,0-.111.489v.518c0,1.319,2.357,2.388,5.265,2.388s5.265-1.069,5.265-2.388v-.518a1.164,1.164,0,0,0-.111-.489C178.161,305.068,176.042,305.883,173.5,305.883Z" transform="translate(-160.648 -291.277)"/></g></g></svg>