<svg height="511pt" viewBox="0 -20 511.9999 511" width="511pt" xmlns="http://www.w3.org/2000/svg"><path d="m460.996094 10.5h-196.019532c-22.648437 0-41.003906 18.359375-41.003906 41.003906v110.011719c0 22.644531 18.355469 41.003906 41.003906 41.003906h33.335938v29.003907l29.003906-29.003907h133.679688c22.644531 0 41.003906-18.359375 41.003906-41.003906v-110.011719c0-22.644531-18.359375-41.003906-41.003906-41.003906zm0 0" fill="#ffcb7c"/><path d="m343.980469 80.726562v6.265626c0 13.835937-11.21875 25.054687-25.058594 25.054687-13.835937 0-25.054687-11.21875-25.054687-25.054687v-6.265626c0-13.839843 11.21875-25.054687 25.054687-25.054687 13.839844 0 25.058594 11.214844 25.058594 25.054687zm0 0" fill="#ffddcf"/><path d="m341.445312 112.046875h-45.042968c-16.285156 0-29.484375 13.199219-29.484375 29.480469v15.820312h104.011719v-15.820312c0-16.28125-13.203126-29.480469-29.484376-29.480469zm0 0" fill="#91def5"/><path d="m112.425781 320.0625 78.125 78.125c28.121094 28.121094 72.21875 32.390625 105.214844 10.1875l24.132813-16.234375c22.804687-15.347656 25.941406-47.699219 6.5-67.136719l-41.289063-41.289062c-15.316406-15.316406-39.542969-17.097656-56.9375-4.183594l-26.722656 19.84375c-6.019531 4.46875-14.40625 3.851562-19.707031-1.449219l-23.589844-23.585937-23.585938-23.589844c-5.300781-5.300781-5.917968-13.6875-1.449218-19.707031l19.84375-26.722657c12.914062-17.390624 11.132812-41.621093-4.183594-56.9375l-41.289063-41.289062c-19.4375-19.4375-51.789062-16.304688-67.136719 6.503906l-16.234374 24.128906c-22.203126 32.996094-17.933594 77.09375 10.191406 105.214844zm0 0" fill="#ff765b"/><path d="m326.398438 325.003906-41.289063-41.289062c-15.316406-15.316406-39.542969-17.097656-56.9375-4.183594l-13.25 9.839844 103.65625 103.652344 1.320313-.886719c22.804687-15.347657 25.941406-47.695313 6.5-67.132813zm0 0" fill="#fff"/><path d="m142.816406 217.980469 10.144532-13.664063c12.914062-17.390625 11.132812-41.617187-4.183594-56.933594l-41.289063-41.289062c-19.4375-19.441406-51.789062-16.308594-67.136719 6.5l-1.175781 1.75zm0 0" fill="#fff"/><path d="m264.976562 212.519531h23.335938v19.003907c0 4.042968 2.4375 7.691406 6.171875 9.238281 1.238281.511719 2.539063.761719 3.828125.761719 2.601562 0 5.160156-1.015626 7.070312-2.929688l26.074219-26.074219h129.539063c28.121094 0 51.003906-22.878906 51.003906-51.003906v-110.011719c0-28.125-22.882812-51.003906-51.003906-51.003906h-196.019532c-28.125 0-51.007812 22.878906-51.007812 51.003906v110.011719c0 28.125 22.882812 51.003906 51.007812 51.003906zm-31.003906-161.015625c0-17.09375 13.90625-31.003906 31.003906-31.003906h196.019532c17.09375 0 31 13.910156 31 31.003906v110.011719c0 17.09375-13.90625 31.003906-31 31.003906h-133.679688c-2.652344 0-5.195312 1.054688-7.074218 2.929688l-11.929688 11.929687v-4.859375c0-5.523437-4.476562-10-10-10h-33.335938c-17.097656 0-31.003906-13.910156-31.003906-31.003906zm0 0"/><path d="m266.917969 167.351562h104.011719c5.519531 0 10-4.480468 10-10.003906v-15.820312c0-18.800782-13.214844-34.5625-30.839844-38.515625 2.480468-4.808594 3.890625-10.25 3.890625-16.019531v-6.265626c0-19.332031-15.726563-35.058593-35.058594-35.058593-19.328125 0-35.054687 15.726562-35.054687 35.058593v6.265626c0 5.769531 1.410156 11.210937 3.890624 16.019531-17.628906 3.953125-30.839843 19.714843-30.839843 38.515625v15.820312c0 5.523438 4.476562 10.003906 10 10.003906zm36.949219-86.625c0-8.300781 6.753906-15.054687 15.054687-15.054687s15.054687 6.753906 15.054687 15.054687v6.265626c0 8.300781-6.753906 15.054687-15.054687 15.054687s-15.054687-6.753906-15.054687-15.054687zm-26.949219 60.800782c0-10.742188 8.738281-19.480469 19.480469-19.480469h45.046874c10.742188 0 19.480469 8.738281 19.480469 19.480469v5.820312h-84.007812zm0 0"/><path d="m411.988281 82.042969h42.339844c5.519531 0 10-4.476563 10-10 0-5.523438-4.480469-10-10-10h-42.339844c-5.519531 0-10 4.476562-10 10 0 5.523437 4.480469 10 10 10zm0 0"/><path d="m411.988281 122.046875h42.339844c5.519531 0 10-4.476563 10-10s-4.480469-10-10-10h-42.339844c-5.519531 0-10 4.476563-10 10s4.480469 10 10 10zm0 0"/><path d="m411.988281 162.050781h42.339844c5.519531 0 10-4.476562 10-10 0-5.523437-4.480469-10-10-10h-42.339844c-5.519531 0-10 4.476563-10 10 0 5.523438 4.480469 10 10 10zm0 0"/><path d="m509.070312 455.28125-22.4375-22.4375c-3.242187-3.242188-7.550781-5.027344-12.136718-5.027344-4.585938 0-8.898438 1.785156-12.140625 5.027344l-16.085938 16.085938-16.113281-16.113282c-6.695312-6.691406-17.585938-6.691406-24.277344 0l-16.007812 16.007813-16.921875-16.921875c-6.695313-6.691406-17.585938-6.691406-24.277344 0l-14.445313 14.445312-21.875-37.078125 11.71875-7.882812c.007813-.007813.019532-.011719.027344-.019531l1.382813-.929688c13.359375-8.992188 21.914062-23.339844 23.464843-39.371094 1.550782-16.027344-4.089843-31.75-15.472656-43.136718l-41.289062-41.289063c-18.683594-18.679687-48.761719-20.890625-69.972656-5.140625l-26.722657 19.84375c-2.023437 1.503906-4.890625 1.292969-6.671875-.488281l-47.179687-47.179688c-1.78125-1.78125-1.992188-4.648437-.492188-6.671875l19.847657-26.722656c15.75-21.210938 13.539062-51.292969-5.140626-69.96875l-41.289062-41.292969c-11.386719-11.386719-27.113281-17.023437-43.140625-15.472656s-30.375 10.105469-39.367187 23.464844l-1.210938 1.800781c-.011719.015625-.023438.03125-.03125.046875l-14.992188 22.28125c-24.8125 36.875-20.011718 86.449219 11.414063 117.875l49.835937 49.832031c3.90625 3.90625 10.238282 3.90625 14.144532 0 3.90625-3.902344 3.90625-10.238281 0-14.144531l-49.835938-49.832031c-24.679687-24.679688-28.449218-63.609375-8.964844-92.5625l8.28125-12.304688 88.945313 88.945313-4.554687 6.132812c-7.367188 9.921875-6.332032 24 2.40625 32.738281l47.179687 47.175782c8.738281 8.742187 22.8125 9.777344 32.738281 2.40625l6.546875-4.855469 88.960938 88.960937-12.734375 8.570313c-28.957032 19.484375-67.886719 15.714844-92.5625-8.964844l-49.832032-49.832031c-3.90625-3.902344-10.234374-3.902344-14.144531 0-3.90625 3.90625-3.90625 10.238281 0 14.144531l49.832031 49.832031c17.972657 17.972657 41.871094 27.234376 65.945313 27.234376 15.871094 0 31.816406-4.035157 46.175781-12.25l23.265625 39.421874c2.71875 4.605469 7.320313 7.632813 12.625 8.304688 5.308594.667969 10.519531-1.109375 14.296875-4.890625l15.023438-15.027344 16.921875 16.921875c6.695312 6.691406 17.585937 6.691406 24.277343 0l16.007813-16.007812 16.113281 16.117187c6.695313 6.691407 17.585938 6.691407 24.277344 0l16.089844-16.089843 20.429687 20.429687c1.953125 1.953125 4.511719 2.929687 7.070313 2.929687 2.5625 0 5.121094-.976562 7.074218-2.929687 3.90625-3.90625 3.90625-10.238281 0-14.140625zm-456.605468-341.792969c5.511718-5.671875 12.859375-9.253906 20.886718-10.03125 10.066407-.972656 19.921876 2.5625 27.066407 9.707031l41.289062 41.292969c11.71875 11.71875 13.105469 30.59375 3.226563 43.898438l-3.238282 4.363281zm181.671875 174.070313c13.304687-9.882813 32.179687-8.496094 43.898437 3.226562l41.289063 41.289063c7.144531 7.144531 10.683593 17.011719 9.710937 27.066406-.761718 7.855469-4.210937 15.058594-9.671875 20.527344l-89.175781-89.175781zm0 0"/><path d="m112.429688 310.0625c-2.640626 0-5.210938 1.070312-7.070313 2.929688-1.871094 1.863281-2.929687 4.441406-2.929687 7.070312 0 2.632812 1.058593 5.210938 2.929687 7.074219 1.859375 1.855469 4.433594 2.929687 7.070313 2.929687 2.632812 0 5.210937-1.070312 7.070312-2.929687 1.859375-1.863281 2.929688-4.441407 2.929688-7.074219 0-2.628906-1.066407-5.207031-2.929688-7.070312-1.859375-1.859376-4.4375-2.929688-7.070312-2.929688zm0 0"/></svg>