<svg xmlns="http://www.w3.org/2000/svg" width="19.223" height="19.131" viewBox="0 0 19.223 19.131"><defs><style>.a{fill:#fff;stroke:#fff;stroke-width:0.5px;}</style></defs><g transform="translate(0.25 0.392)"><path class="a" d="M17.151,48.974a.463.463,0,0,0-.463.463v4.109A1.39,1.39,0,0,1,15.3,54.935H2.314A1.39,1.39,0,0,1,.926,53.546V41.486A1.39,1.39,0,0,1,2.314,40.1H6.423a.463.463,0,0,0,0-.926H2.314A2.317,2.317,0,0,0,0,41.486v12.06A2.317,2.317,0,0,0,2.314,55.86H15.3a2.317,2.317,0,0,0,2.314-2.314V49.437a.463.463,0,0,0-.463-.463Zm0,0" transform="translate(0 -37.371)"/><path class="a" d="M120.613.871a2.083,2.083,0,0,0-2.945,0l-8.257,8.257a.463.463,0,0,0-.119.2l-1.086,3.92a.463.463,0,0,0,.569.57l3.92-1.086a.463.463,0,0,0,.2-.119l8.256-8.257a2.085,2.085,0,0,0,0-2.945ZM110.42,9.428l6.757-6.758,2.179,2.179L112.6,11.607Zm-.435.874,1.741,1.741-2.408.667ZM120.5,3.7l-.491.491-2.179-2.179.491-.491a1.157,1.157,0,0,1,1.636,0l.543.543A1.159,1.159,0,0,1,120.5,3.7Zm0,0" transform="translate(-103.183 -0.261)"/></g></svg>