<?xml version="1.0" encoding="iso-8859-1"?>
<!-- Generator: Adobe Illustrator 19.0.0, SVG Export Plug-In . SVG Version: 6.00 Build 0)  -->
<svg xmlns="http://www.w3.org/2000/svg" xmlns:xlink="http://www.w3.org/1999/xlink" version="1.1" id="Capa_1" x="0px" y="0px" viewBox="0 0 511 511" style="enable-background:new 0 0 511 511;" xml:space="preserve" width="512" height="512">
<g>
	<g>
		<g>
			<rect x="7.5" y="59.5" style="fill:#F5F4F7;" width="496" height="392"/>
			<rect x="7.5" y="59.5" style="fill:#EBE8EF;" width="24" height="392"/>
			<rect x="7.5" y="59.5" style="fill:#E76C91;" width="496" height="48"/>
			<rect x="7.5" y="59.5" style="fill:#E45781;" width="24" height="48"/>
		</g>
		<rect x="55.5" y="155.5" style="fill:#BCB2DA;" width="192" height="248"/>
		<rect x="287.5" y="155.5" style="fill:#F6EF72;" width="168" height="88"/>
		<rect x="287.5" y="283.5" style="fill:#CFEC8C;" width="168" height="120"/>
	</g>
	<g>
		<path d="M503.5,52H7.5C3.358,52,0,55.358,0,59.5v392c0,4.142,3.358,7.5,7.5,7.5h496c4.142,0,7.5-3.358,7.5-7.5v-392    C511,55.358,507.642,52,503.5,52z M15,444V115h81c4.142,0,7.5-3.358,7.5-7.5s-3.358-7.5-7.5-7.5H15V67h481v33H132    c-4.142,0-7.5,3.358-7.5,7.5s3.358,7.5,7.5,7.5h364v329H15z"/>
		<circle cx="447.5" cy="83.5" r="7.5"/>
		<circle cx="423.5" cy="83.5" r="7.5"/>
		<circle cx="471.5" cy="83.5" r="7.5"/>
		<path d="M247.5,148h-192c-4.142,0-7.5,3.358-7.5,7.5v248c0,4.142,3.358,7.5,7.5,7.5h192c4.142,0,7.5-3.358,7.5-7.5v-248    C255,151.358,251.642,148,247.5,148z M240,396H63V163h177V396z"/>
		<path d="M455.5,148h-168c-4.142,0-7.5,3.358-7.5,7.5v88c0,4.142,3.358,7.5,7.5,7.5h168c4.142,0,7.5-3.358,7.5-7.5v-88    C463,151.358,459.642,148,455.5,148z M448,236H295v-73h153V236z"/>
		<path d="M455.5,276h-168c-4.142,0-7.5,3.358-7.5,7.5v120c0,4.142,3.358,7.5,7.5,7.5h168c4.142,0,7.5-3.358,7.5-7.5v-120    C463,279.358,459.642,276,455.5,276z M448,396H295V291h153V396z"/>
	</g>
</g>















</svg>
