<svg xmlns="http://www.w3.org/2000/svg" width="18.975" height="18.906" viewBox="0 0 18.975 18.906"><defs><style>.a{fill:#fff;stroke:#fff;}</style></defs><g transform="translate(0.5 0.5)"><path class="a" d="M8.8,16.788H1.173V1.12H8.8a.574.574,0,0,0,.587-.56A.574.574,0,0,0,8.8,0H.587A.574.574,0,0,0,0,.561V17.348a.574.574,0,0,0,.587.56H8.8a.56.56,0,1,0,0-1.119Z" transform="translate(0 -0.001)"/><path class="a" d="M98.745,100.609,94.7,96.5a.582.582,0,0,0-.83,0,.6.6,0,0,0,0,.838l3.051,3.095H84.836a.593.593,0,0,0,0,1.185H96.918l-3.051,3.095a.6.6,0,0,0,0,.838.582.582,0,0,0,.83,0l4.048-4.106A.6.6,0,0,0,98.745,100.609Z" transform="translate(-81.009 -92.066)"/></g></svg>