<svg xmlns="http://www.w3.org/2000/svg" width="23.15" height="21.629" viewBox="0 0 23.15 21.629"><g transform="translate(0 -16.814)"><g transform="translate(0 16.814)"><g transform="translate(0 0)"><path d="M23.132,24.988a.342.342,0,0,0-.021-.118.591.591,0,0,0-.233-.329l-3.314-2.3V19.768a.593.593,0,0,0-.593-.593H15.159L11.915,16.92a.593.593,0,0,0-.675,0L7.975,19.176h-3.8a.593.593,0,0,0-.593.593v2.44l-3.33,2.3A.592.592,0,0,0,0,24.989S0,25,0,25L.018,37.851a.593.593,0,0,0,.593.592h0l21.946-.03a.593.593,0,0,0,.592-.594Zm-3.568-1.306L21.458,25l-1.894,1.317Zm-7.988-5.553,1.506,1.047H10.061Zm-6.8,2.233H18.378V27.14L13.81,30.316l-1.863-1.445-.008-.006a.592.592,0,0,0-.719.006L9.344,30.326l-4.573-3.16ZM3.586,23.65v2.7L1.635,25Zm-2.4,2.481,7.174,4.958L1.2,36.642ZM2.345,37.255l9.238-7.166,9.205,7.14Zm12.446-6.178L21.948,26.1l.014,10.538Z" transform="translate(0 -16.814)"/></g></g><g transform="translate(6.969 22.733)"><path d="M162.742,147.713h-8.027a.593.593,0,1,0,0,1.186h8.027a.593.593,0,0,0,0-1.186Z" transform="translate(-154.122 -147.713)"/></g><g transform="translate(6.969 25.815)"><path d="M162.742,215.9h-8.027a.593.593,0,1,0,0,1.186h8.027a.593.593,0,0,0,0-1.186Z" transform="translate(-154.122 -215.895)"/></g></g></svg>