<svg xmlns="http://www.w3.org/2000/svg" width="23.035" height="20.246" viewBox="0 0 23.035 20.246">
  <g id="shopping-cart" transform="translate(0 0)">
    <path id="Path_532" data-name="Path 532" d="M7.468,13.5H19.661a.673.673,0,0,0,.648-.49l2.7-9.448a.674.674,0,0,0-.649-.86H5.91L5.428.529A.675.675,0,0,0,4.769,0H.675a.675.675,0,1,0,0,1.35H4.227L6.664,12.316a2.023,2.023,0,0,0,.8,3.881H19.661a.675.675,0,1,0,0-1.35H7.468a.675.675,0,1,1,0-1.35Zm0,0" transform="translate(0 0)"/>
    <path id="Path_533" data-name="Path 533" d="M151,362.029A2.025,2.025,0,1,0,153.025,360,2.027,2.027,0,0,0,151,362.029Zm0,0" transform="translate(-144.207 -343.807)"/>
    <path id="Path_534" data-name="Path 534" d="M362,362.029A2.025,2.025,0,1,0,364.029,360,2.027,2.027,0,0,0,362,362.029Zm0,0" transform="translate(-345.717 -343.807)"/>
  </g>
</svg>
