<svg xmlns="http://www.w3.org/2000/svg" width="18.718" height="21.559" viewBox="0 0 18.718 21.559"><defs><style>.a{fill:#fff;stroke:#fff;stroke-width:0.5px;}</style></defs><g transform="translate(0.25 0.25)"><g transform="translate(0)"><g transform="translate(0)"><path class="a" d="M52.251,1.984h-5.66v-1A.986.986,0,0,0,45.607,0h-3.94a.986.986,0,0,0-.984.985v1h-5.66a.5.5,0,1,0,0,.991h.919l.626,16.3a1.845,1.845,0,0,0,1.849,1.78H48.857a1.845,1.845,0,0,0,1.849-1.78l.626-16.3h.919a.5.5,0,1,0,0-.991ZM41.675.991H45.6v.993H41.675Zm8.041,18.25a.857.857,0,0,1-.859.826H38.418a.857.857,0,0,1-.859-.827L36.934,2.975H50.34Z" transform="translate(-34.528)"/></g></g><g transform="translate(5.1 6.982)"><path class="a" d="M159.526,170.24a.5.5,0,0,0-.5-.486h-.01a.5.5,0,0,0-.486.5l.156,8.088a.5.5,0,0,0,.5.486h.01a.5.5,0,0,0,.486-.505Z" transform="translate(-158.535 -169.754)"/></g><g transform="translate(8.613 6.982)"><path class="a" d="M244.445,169.753a.5.5,0,0,0-.5.5v8.088a.5.5,0,1,0,.991,0v-8.088A.5.5,0,0,0,244.445,169.753Z" transform="translate(-243.949 -169.753)"/></g><g transform="translate(11.971 6.982)"><path class="a" d="M326.244,169.753a.5.5,0,0,0-.5.486l-.156,8.088a.5.5,0,0,0,.486.5h.01a.5.5,0,0,0,.5-.486l.156-8.088A.5.5,0,0,0,326.244,169.753Z" transform="translate(-325.584 -169.753)"/></g></g></svg>