<svg xmlns="http://www.w3.org/2000/svg" width="23.602" height="27.125" viewBox="0 0 23.602 27.125"><defs><style>.a{stroke:#000;}</style></defs><g transform="translate(-34.028 0.5)"><g transform="translate(34.528)"><g transform="translate(0)"><path class="a" d="M56.515,2.462H49.493V1.222A1.223,1.223,0,0,0,48.273,0H43.385a1.223,1.223,0,0,0-1.221,1.222V2.462H35.143a.615.615,0,1,0,0,1.23h1.14l.777,20.227a2.289,2.289,0,0,0,2.294,2.208H52.3A2.289,2.289,0,0,0,54.6,23.918l.777-20.227h1.14a.615.615,0,1,0,0-1.23ZM43.394,1.23h4.869V2.462H43.394ZM53.37,23.871A1.063,1.063,0,0,1,52.3,24.9H39.354a1.063,1.063,0,0,1-1.066-1.025L37.513,3.691H54.145Z" transform="translate(-34.528 0)"/></g></g><g transform="translate(40.856 8.662)"><path class="a" d="M159.764,170.357a.615.615,0,0,0-.614-.6h-.012a.615.615,0,0,0-.6.627l.193,10.034a.615.615,0,0,0,.614.6h.012a.615.615,0,0,0,.6-.627Z" transform="translate(-158.535 -169.754)"/></g><g transform="translate(45.214 8.662)"><path class="a" d="M244.564,169.753a.615.615,0,0,0-.615.615V180.4a.615.615,0,0,0,1.23,0V170.368A.615.615,0,0,0,244.564,169.753Z" transform="translate(-243.949 -169.753)"/></g><g transform="translate(49.38 8.662)"><g transform="translate(0)"><path class="a" d="M326.4,169.753a.615.615,0,0,0-.627.6l-.193,10.034a.615.615,0,0,0,.6.627h.012a.615.615,0,0,0,.614-.6l.193-10.034A.615.615,0,0,0,326.4,169.753Z" transform="translate(-325.584 -169.753)"/></g></g></g></svg>